<?xml version="1.0" encoding="utf-8"?>
<!-- Generator: Adobe Illustrator 18.0.0, SVG Export Plug-In . SVG Version: 6.00 Build 0)  -->
<!DOCTYPE svg PUBLIC "-//W3C//DTD SVG 1.1//EN" "http://www.w3.org/Graphics/SVG/1.1/DTD/svg11.dtd">
<svg version="1.1" xmlns="http://www.w3.org/2000/svg" xmlns:xlink="http://www.w3.org/1999/xlink" x="0px" y="0px"
	 viewBox="0 0 300 300" enable-background="new 0 0 300 300" xml:space="preserve">
<g id="Layer_2">
</g>
<g id="Layer_1">
	<g>
		<path fill="#48B768" d="M57.8,98.1l-7.5-3.7l7.5-3.7v1l-5.4,2.7l5.4,2.7V98.1z"/>
		<path fill="#48B768" d="M60.4,98.1v-9.3h2.4c0.9,0,1.6,0.2,2.1,0.5c0.5,0.4,0.7,0.9,0.7,1.5c0,1.1-0.6,1.9-1.9,2.4
			c1.5,0.5,2.3,1.3,2.3,2.5c0,0.8-0.3,1.3-0.8,1.7c-0.5,0.4-1.2,0.6-2.2,0.6H60.4z M61.7,92.8h0.4c0.7,0,1.3-0.2,1.6-0.5
			c0.4-0.3,0.6-0.7,0.6-1.3c0-0.9-0.7-1.4-2.1-1.4h-0.5V92.8z M61.7,97.1H62c1,0,1.6-0.1,1.9-0.2c0.5-0.2,0.8-0.7,0.8-1.3
			c0-0.6-0.2-1-0.7-1.4c-0.5-0.4-1.1-0.6-1.9-0.6h-0.4V97.1z"/>
		<path fill="#48B768" d="M71.6,98.3c-1.3,0-2.3-0.4-3.1-1.3s-1.2-2.1-1.2-3.6c0-1.5,0.4-2.7,1.2-3.6c0.8-0.9,1.9-1.3,3.2-1.3
			c1.3,0,2.4,0.4,3.2,1.3c0.8,0.9,1.2,2.1,1.2,3.6c0,1.5-0.4,2.7-1.2,3.6C74,97.9,72.9,98.3,71.6,98.3z M71.6,97.3
			c1,0,1.7-0.3,2.2-1c0.5-0.7,0.8-1.7,0.8-2.9c0-1.2-0.3-2.2-0.8-2.9c-0.5-0.7-1.2-1-2.2-1c-0.9,0-1.7,0.3-2.2,1s-0.8,1.6-0.8,2.9
			c0,1.2,0.3,2.2,0.8,2.9C70,97,70.7,97.3,71.6,97.3z"/>
		<path fill="#48B768" d="M77.9,98.1v-9.3H81c0.9,0,1.7,0.1,2.2,0.3c0.6,0.2,1.1,0.6,1.5,1c0.7,0.8,1,1.8,1,3.1
			c0,1.6-0.4,2.8-1.2,3.6c-0.8,0.9-2,1.3-3.5,1.3H77.9z M79.2,97.1h1.7c1.2,0,2.1-0.3,2.6-1c0.5-0.7,0.8-1.6,0.8-2.8
			c0-1.1-0.3-2-0.8-2.6c-0.3-0.4-0.7-0.6-1.2-0.8c-0.5-0.1-1.1-0.2-2-0.2h-1.1V97.1z"/>
		<path fill="#48B768" d="M89.6,98.1v-3.9l-3.1-5.4H88l2.4,4.2l2.6-4.2h1.2l-3.3,5.4v3.9H89.6z"/>
		<path fill="#48B768" d="M95.8,97l5.4-2.7l-5.4-2.7v-1l7.5,3.7l-7.5,3.7V97z"/>
		<path fill="#FFD162" d="M57.8,113.6l-7.5-3.7l7.5-3.7v1l-5.4,2.7l5.4,2.7V113.6z"/>
		<path fill="#FFD162" d="M60.4,113.6v-10h1.2v4.4c0.7-1,1.5-1.4,2.4-1.4c0.6,0,1.1,0.2,1.4,0.6c0.4,0.4,0.5,0.9,0.5,1.5v4.9h-1.2
			v-4.5c0-0.5-0.1-0.9-0.2-1.1c-0.1-0.2-0.4-0.3-0.7-0.3c-0.8,0-1.5,0.5-2.2,1.5v4.4H60.4z"/>
		<path fill="#FFD162" d="M69.1,113.6v-0.9H71v-7.4l-1.9,0.5v-1l3.1-0.8v8.6h1.9v0.9H69.1z"/>
		<path fill="#FFD162" d="M76.8,112.5l5.4-2.7l-5.4-2.7v-1l7.5,3.7l-7.5,3.7V112.5z"/>
		<path fill="#FFFFFF" d="M86.8,113.6v-9.3h2.8c0.9,0,1.6,0.2,2.1,0.6c0.5,0.4,0.7,1,0.7,1.7c0,1.2-0.6,2.1-1.9,2.6l3.1,4.4h-1.6
			l-2.7-3.9h-1.2v3.9H86.8z M88.2,108.6h0.4c1.7,0,2.5-0.7,2.5-2c0-1-0.7-1.4-2.1-1.4h-0.8V108.6z"/>
		<path fill="#FFFFFF" d="M95.1,105.5v-1.2h1.2v1.2H95.1z M95.1,113.6v-6.9h1.2v6.9H95.1z"/>
		<path fill="#FFFFFF" d="M100.6,113.7c-0.6,0-1.3-0.1-2.1-0.4v-1.1c0.8,0.4,1.5,0.6,2.1,0.6c0.4,0,0.7-0.1,0.9-0.3
			c0.2-0.2,0.4-0.4,0.4-0.7c0-0.4-0.3-0.8-1-1.1l-0.7-0.3c-1.1-0.4-1.6-1.1-1.6-1.9c0-0.6,0.2-1.1,0.6-1.4c0.4-0.3,1-0.5,1.7-0.5
			c0.4,0,0.9,0.1,1.4,0.2l0.3,0.1v1c-0.7-0.2-1.2-0.3-1.7-0.3c-0.8,0-1.2,0.3-1.2,0.9c0,0.4,0.3,0.7,0.9,0.9l0.6,0.3
			c0.7,0.3,1.2,0.6,1.4,0.9c0.3,0.3,0.4,0.7,0.4,1.2c0,0.6-0.2,1.1-0.7,1.5C102,113.5,101.3,113.7,100.6,113.7z"/>
		<path fill="#FFFFFF" d="M110.4,113.4c-0.8,0.3-1.5,0.4-2.1,0.4c-1,0-1.8-0.3-2.5-1c-0.6-0.7-1-1.5-1-2.6c0-1,0.3-1.9,0.8-2.6
			c0.6-0.7,1.3-1,2.2-1c0.8,0,1.5,0.3,1.9,0.9s0.7,1.4,0.7,2.5l0,0.4h-4.3c0.2,1.6,1,2.4,2.4,2.4c0.5,0,1.2-0.1,1.9-0.4V113.4z
			 M106.2,109.4h3c0-1.3-0.5-1.9-1.4-1.9C106.8,107.5,106.3,108.1,106.2,109.4z"/>
		<path fill="#FFFFFF" d="M119.2,113.6l-3.5-9.3h1.3l2.9,7.6l2.8-7.6h1.2l-3.4,9.3H119.2z"/>
		<path fill="#FFFFFF" d="M125.1,105.5v-1.2h1.2v1.2H125.1z M125.1,113.6v-6.9h1.2v6.9H125.1z"/>
		<path fill="#FFFFFF" d="M130.7,113.7c-0.6,0-1.3-0.1-2.1-0.4v-1.1c0.8,0.4,1.5,0.6,2.1,0.6c0.4,0,0.7-0.1,0.9-0.3
			c0.2-0.2,0.4-0.4,0.4-0.7c0-0.4-0.3-0.8-1-1.1l-0.7-0.3c-1.1-0.4-1.6-1.1-1.6-1.9c0-0.6,0.2-1.1,0.6-1.4c0.4-0.3,1-0.5,1.7-0.5
			c0.4,0,0.9,0.1,1.4,0.2l0.3,0.1v1c-0.7-0.2-1.2-0.3-1.7-0.3c-0.8,0-1.2,0.3-1.2,0.9c0,0.4,0.3,0.7,0.9,0.9l0.6,0.3
			c0.7,0.3,1.2,0.6,1.4,0.9c0.3,0.3,0.4,0.7,0.4,1.2c0,0.6-0.2,1.1-0.7,1.5C132,113.5,131.4,113.7,130.7,113.7z"/>
		<path fill="#FFFFFF" d="M135.4,105.5v-1.2h1.2v1.2H135.4z M135.4,113.6v-6.9h1.2v6.9H135.4z"/>
		<path fill="#FFFFFF" d="M141.8,113.7c-1,0-1.8-0.3-2.3-1c-0.6-0.6-0.9-1.5-0.9-2.6c0-1.1,0.3-2,0.9-2.6c0.6-0.6,1.4-1,2.4-1
			c1,0,1.8,0.3,2.4,1c0.6,0.6,0.9,1.5,0.9,2.6c0,1.1-0.3,2-0.9,2.6C143.7,113.4,142.9,113.7,141.8,113.7z M141.9,112.8
			c1.3,0,2-0.9,2-2.7c0-1.8-0.6-2.6-1.9-2.6c-1.3,0-1.9,0.9-1.9,2.6C139.9,111.9,140.6,112.8,141.9,112.8z"/>
		<path fill="#FFFFFF" d="M147.1,113.6v-6.9h1.2v1.3c0.7-1,1.5-1.4,2.4-1.4c0.6,0,1.1,0.2,1.4,0.6c0.4,0.4,0.5,0.9,0.5,1.5v4.9h-1.2
			v-4.5c0-0.5-0.1-0.9-0.2-1.1c-0.1-0.2-0.4-0.3-0.7-0.3c-0.8,0-1.5,0.5-2.2,1.5v4.4H147.1z"/>
		<path fill="#FFD162" d="M162.7,113.6l-7.5-3.7l7.5-3.7v1l-5.4,2.7l5.4,2.7V113.6z"/>
		<path fill="#FFD162" d="M165.4,115.4l3.4-11.2h1l-3.4,11.2H165.4z"/>
		<path fill="#FFD162" d="M172.2,113.6v-10h1.2v4.4c0.7-1,1.5-1.4,2.4-1.4c0.6,0,1.1,0.2,1.4,0.6c0.4,0.4,0.5,0.9,0.5,1.5v4.9h-1.2
			v-4.5c0-0.5-0.1-0.9-0.2-1.1c-0.1-0.2-0.4-0.3-0.7-0.3c-0.8,0-1.5,0.5-2.2,1.5v4.4H172.2z"/>
		<path fill="#FFD162" d="M180.9,113.6v-0.9h1.9v-7.4l-1.9,0.5v-1l3.1-0.8v8.6h1.9v0.9H180.9z"/>
		<path fill="#FFD162" d="M188.5,112.5l5.4-2.7l-5.4-2.7v-1l7.5,3.7l-7.5,3.7V112.5z"/>
		<path fill="#48B768" d="M57.8,129.1l-7.5-3.7l7.5-3.7v1l-5.4,2.7l5.4,2.7V129.1z"/>
		<path fill="#48B768" d="M60.4,130.9l3.4-11.2h1l-3.4,11.2H60.4z"/>
		<path fill="#48B768" d="M67.2,129.1v-9.3h2.4c0.9,0,1.6,0.2,2.1,0.5c0.5,0.4,0.7,0.9,0.7,1.5c0,1.1-0.6,1.9-1.9,2.4
			c1.5,0.5,2.3,1.3,2.3,2.5c0,0.8-0.3,1.3-0.8,1.7c-0.5,0.4-1.2,0.6-2.2,0.6H67.2z M68.5,123.8h0.4c0.7,0,1.3-0.2,1.6-0.5
			c0.4-0.3,0.6-0.7,0.6-1.3c0-0.9-0.7-1.4-2.1-1.4h-0.5V123.8z M68.5,128.1h0.3c1,0,1.6-0.1,1.9-0.2c0.5-0.2,0.8-0.7,0.8-1.3
			c0-0.6-0.2-1-0.7-1.4c-0.5-0.4-1.1-0.6-1.9-0.6h-0.4V128.1z"/>
		<path fill="#48B768" d="M78.4,129.3c-1.3,0-2.3-0.4-3.1-1.3s-1.2-2.1-1.2-3.6c0-1.5,0.4-2.7,1.2-3.6c0.8-0.9,1.9-1.3,3.2-1.3
			c1.3,0,2.4,0.4,3.2,1.3c0.8,0.9,1.2,2.1,1.2,3.6c0,1.5-0.4,2.7-1.2,3.6C80.8,128.9,79.7,129.3,78.4,129.3z M78.4,128.3
			c1,0,1.7-0.3,2.2-1c0.5-0.7,0.8-1.7,0.8-2.9c0-1.2-0.3-2.2-0.8-2.9c-0.5-0.7-1.2-1-2.2-1c-0.9,0-1.7,0.3-2.2,1s-0.8,1.6-0.8,2.9
			c0,1.2,0.3,2.2,0.8,2.9C76.7,128,77.5,128.3,78.4,128.3z"/>
		<path fill="#48B768" d="M84.6,129.1v-9.3h3.1c0.9,0,1.7,0.1,2.2,0.3c0.6,0.2,1.1,0.6,1.5,1c0.7,0.8,1,1.8,1,3.1
			c0,1.6-0.4,2.8-1.2,3.6c-0.8,0.9-2,1.3-3.5,1.3H84.6z M86,128.1h1.7c1.2,0,2.1-0.3,2.6-1c0.5-0.7,0.8-1.6,0.8-2.8
			c0-1.1-0.3-2-0.8-2.6c-0.3-0.4-0.7-0.6-1.2-0.8c-0.5-0.1-1.1-0.2-2-0.2H86V128.1z"/>
		<path fill="#48B768" d="M96.3,129.1v-3.9l-3.1-5.4h1.5l2.4,4.2l2.6-4.2h1.2l-3.3,5.4v3.9H96.3z"/>
		<path fill="#48B768" d="M102.6,128l5.4-2.7l-5.4-2.7v-1l7.5,3.7l-7.5,3.7V128z"/>
	</g>
</g>
</svg>
